<svg xmlns="http://www.w3.org/2000/svg" viewBox="440 383 195 115" fill="currentColor">
  <path d="M578.724182,469.733643 
	C583.443237,471.356140 589.637451,469.056091 592.811462,464.156799 
	C598.823608,454.876587 597.271790,438.205048 583.050049,433.736115 
	C577.201782,431.898407 572.427368,434.043579 568.107239,436.769592 
	C560.424011,441.617828 553.262939,447.297028 545.912659,452.668732 
	C535.563660,460.231995 524.905823,467.295441 512.709961,471.545776 
	C503.724213,474.677429 494.536224,474.167450 484.510376,472.480713 
	C487.205200,466.455963 489.282013,460.851410 492.253143,455.769775 
	C493.118927,454.289001 496.494873,454.006927 498.792297,453.676208 
	C512.635559,451.683380 523.641113,444.113495 534.162842,435.699677 
	C538.864441,431.940002 543.155701,427.667114 547.290039,423.313293 
	C546.946838,422.999451 546.957825,423.053589 546.957825,423.053589 
	C548.598145,422.753326 550.483459,422.873138 551.838074,422.083008 
	C559.344971,417.704102 567.093384,414.136841 575.878418,413.252838 
	C588.755920,411.956940 599.337463,416.782654 607.468384,426.299377 
	C621.059814,442.207458 619.458435,467.315247 604.218994,481.449677 
	C594.953735,490.043152 583.757629,492.775635 571.843628,488.784485 
	C567.409302,487.299011 563.965576,482.856262 559.989258,479.025391 
	C559.010620,475.290161 558.404480,472.157043 557.106567,469.342957 
	C556.316345,467.629639 554.459656,466.408264 553.044678,464.959351 
	C553.007385,464.952850 553.049744,464.890076 553.038879,464.525543 
	C553.536682,461.574097 553.775513,458.893341 554.633240,456.427887 
	C555.418823,454.169739 556.872925,452.144165 558.032471,450.016113 
	C559.425354,449.892548 560.818237,449.768982 562.767700,450.084991 
	C566.075073,454.020569 568.825806,457.516541 571.576599,461.012543 
	C571.713989,461.443665 571.851379,461.874786 571.989624,462.984924 
	C572.555786,464.475250 573.120972,465.286621 573.686096,466.098022 
	C573.686096,466.098022 573.935608,466.136688 573.978882,466.521240 
	C574.570435,467.305115 575.118835,467.704437 575.667175,468.103760 
	C575.667175,468.103760 575.890198,468.072479 576.026001,468.521790 
	C577.015930,469.225311 577.870056,469.479492 578.724182,469.733643 
z"/>
  <path d="M521.127930,404.433716 
	C524.429993,411.530487 527.480591,418.326660 530.680054,425.051971 
	C532.155518,428.153534 532.096741,430.616119 529.039978,432.783173 
	C525.533447,435.269135 522.248108,438.064728 518.801819,440.638885 
	C516.200500,442.581879 514.552673,442.185364 513.246826,438.849854 
	C510.708313,432.365631 507.713745,426.059937 504.393921,418.511169 
	C502.727142,421.160767 501.646851,422.525360 500.936768,424.061157 
	C493.702393,439.708374 486.483826,455.363281 479.363403,471.062531 
	C477.111511,476.027588 475.333740,481.212311 472.971161,486.119446 
	C472.337494,487.435577 470.379242,488.881378 468.979614,488.933258 
	C461.509491,489.210114 454.023651,489.063660 446.903534,489.063660 
	C449.516205,483.848999 452.098022,479.079742 454.340759,474.156006 
	C466.951935,446.469788 479.431427,418.723328 492.169830,391.096130 
	C492.895325,389.522614 495.410614,388.140503 497.271423,387.861938 
	C500.693726,387.349701 504.312195,388.146271 507.733856,387.631927 
	C512.748413,386.878143 514.977112,389.478607 516.566284,393.520660 
	C517.962646,397.072296 519.475830,400.578094 521.127930,404.433716 
z"/>
  <path d="M553.081970,464.965881 
	C554.459656,466.408264 556.316345,467.629639 557.106567,469.342957 
	C558.404480,472.157043 559.010620,475.290161 559.944458,478.671143 
	C558.198792,478.101013 556.416992,477.148529 554.635254,476.196045 
	C555.161438,478.271149 555.497253,480.420258 556.267151,482.400604 
	C557.042053,484.393829 558.248596,486.219238 559.662598,488.858368 
	C551.760071,488.858368 544.201721,488.944214 536.651550,488.734680 
	C535.834839,488.711975 534.805847,487.095703 534.318542,486.018219 
	C532.010193,480.914062 529.855713,475.740326 527.402954,470.024109 
	C531.802551,466.979614 536.045593,461.895782 540.959045,461.133575 
	C548.846436,459.910004 551.593750,452.987274 557.736206,449.954773 
	C556.872925,452.144165 555.418823,454.169739 554.633240,456.427887 
	C553.775513,458.893341 553.536682,461.574097 552.692810,464.238007 
	C551.152710,463.624786 549.947815,462.934540 548.742920,462.244293 
	C548.822449,464.479156 548.901917,466.714020 548.981445,468.948883 
	C549.655334,469.041321 550.329224,469.133728 551.003113,469.226166 
	C551.696045,467.806061 552.388977,466.385986 553.081970,464.965881 
M551.463806,468.277649 
	C551.239441,469.112335 551.015076,469.946991 550.790649,470.781677 
	C551.439941,470.745758 552.089172,470.709808 553.257629,470.393768 
	C553.090149,469.800201 552.922607,469.206665 551.463806,468.277649 
z"/>
  <path d="M546.971252,423.000916 
	C546.907532,422.684906 546.873169,422.117981 546.723633,422.085785 
	C539.080505,420.440582 535.439514,415.963959 535.630188,407.775574 
	C535.737305,403.176361 535.822937,398.441620 536.958130,394.035919 
	C538.351807,388.627686 543.350403,386.316467 549.715332,387.068390 
	C555.866760,387.795105 559.504822,390.967102 560.015320,396.638550 
	C560.342163,400.270050 560.156555,403.964722 559.978577,407.620270 
	C559.758362,412.144470 556.765808,414.434021 553.050476,416.509674 
	C550.413635,417.982788 548.376282,420.529114 546.514587,422.825012 
	C546.957825,423.053589 546.946838,422.999451 546.971252,423.000916 
z"/>
  <path d="M571.554260,460.632446 
	C568.825806,457.516541 566.075073,454.020569 563.159424,450.283417 
	C568.724731,451.033813 570.333191,455.471741 571.554260,460.632446 
z"/>
  <path d="M573.644897,465.792542 
	C573.120972,465.286621 572.555786,464.475250 571.996094,463.329590 
	C572.535645,463.825928 573.069702,464.656494 573.644897,465.792542 
z"/>
  <path d="M575.574707,467.863586 
	C575.118835,467.704437 574.570435,467.305115 573.953125,466.644836 
	C574.416870,466.797058 574.949524,467.210236 575.574707,467.863586 
z"/>
  <path d="M578.505920,469.495544 
	C577.870056,469.479492 577.015930,469.225311 576.033142,468.634155 
	C576.698853,468.617310 577.493286,468.937378 578.505920,469.495544 
z"/>
</svg>